<?xml version="1.0" standalone="no"?><!DOCTYPE svg PUBLIC "-//W3C//DTD SVG 1.1//EN" "http://www.w3.org/Graphics/SVG/1.1/DTD/svg11.dtd"><svg t="1603699080140" class="icon" viewBox="0 0 1024 1024" version="1.1" xmlns="http://www.w3.org/2000/svg" p-id="2465" xmlns:xlink="http://www.w3.org/1999/xlink" width="200" height="200"><defs><style type="text/css"></style></defs><path d="M957.434443 412.258345c-8.280594-23.668049-309.126476-44.821835-309.126476-44.821835S537.022395 88.016613 510.108418 88.016613c-26.909883 0-138.253784 279.419897-138.253784 279.419897S72.293001 388.478755 62.727135 412.258345c-9.56689 23.77345 223.692688 217.514989 223.692688 217.514989s-68.87567 294.214858-52.816926 307.104423c16.109909 12.894681 276.450263-145.008628 276.450263-145.008628s258.379699 163.376974 276.508591 145.008628c13.31526-13.505595-22.435988-178.836061-41.794895-262.452457-0.615007-2.676969-101.048417 11.166317-212.389248 11.890818-98.863658 0.669242-209.145367-6.031367-209.145367-6.031367l257.429047-191.169971c0 0-80.009242-14.56881-140.769071-20.036335-86.837764-7.814989-162.92672-7.648191-153.472394-10.045797 15.050788-3.797489 120.573099-13.677511 223.688595-10.04989 94.112448 3.351328 187.211822 20.040429 187.211822 20.040429L439.892217 652.15611c0 0 56.226582 8.653077 102.893438 10.440793 88.903819 3.403516 197.392696 0.947582 197.171662 0-3.304256-14.009062-6.210445-32.82357-6.210445-32.82357S965.716061 435.923324 957.434443 412.258345L957.434443 412.258345zM957.434443 412.258345" p-id="2466"></path></svg>