<?xml version="1.0" standalone="no"?><!DOCTYPE svg PUBLIC "-//W3C//DTD SVG 1.1//EN" "http://www.w3.org/Graphics/SVG/1.1/DTD/svg11.dtd"><svg t="1603699094155" class="icon" viewBox="0 0 1024 1024" version="1.1" xmlns="http://www.w3.org/2000/svg" p-id="3341" xmlns:xlink="http://www.w3.org/1999/xlink" width="200" height="200"><defs><style type="text/css"></style></defs><path d="M726.973608 502.538511c-34.789341-6.760984-17.886369-25.464975-17.886369-25.464975s34.026978-56.002478-6.706749-96.79044c-50.495044-50.439786-173.186388 6.434549-173.186388 6.434549-46.827515 14.559601-34.408671-6.598278-27.810393-42.697451 0-42.424228-14.518668-114.294093-139.309836-71.815629-124.709303 42.642193-231.751225 192.216813-231.751225 192.216813-74.487481 99.298564-64.591087 176.076204-64.591087 176.076204 18.567891 169.477926 198.678992 216.046544 338.765517 227.061412 147.380652 11.615549 346.304214-50.821479 406.614811-178.911786C871.422488 560.284703 761.818207 509.518482 726.973608 502.538511L726.973608 502.538511zM415.431106 819.736826c-146.275481 6.816243-264.550235-66.526159-264.550235-164.188456 0-97.716532 118.274754-176.13044 264.550235-182.838212 146.425907-6.760984 264.919648 53.602825 264.919648 151.101393C680.350754 721.474872 561.803801 813.084313 415.431106 819.736826L415.431106 819.736826zM415.431106 819.736826" p-id="3342"></path><path d="M386.285299 537.055652c-147.202597 17.231453-130.162502 155.082054-130.162502 155.082054s-1.526773 43.678802 39.452547 65.872267c86.102007 46.622854 174.74079 18.376533 219.550345-39.479153C559.94957 660.729369 533.611715 519.988951 386.285299 537.055652L386.285299 537.055652zM349.15054 730.527039c-27.482935 3.27151-49.622164-12.596899-49.622164-35.552727 0-22.902616 19.657712-46.895053 47.140647-49.785893 31.573089-2.944052 52.103682 15.268752 52.103682 38.225603C398.772704 706.261379 376.469746 727.419258 349.15054 730.527039L349.15054 730.527039zM435.853228 656.69345c-9.296737 6.925736-20.775162 5.944386-25.656333-2.399653-5.15337-8.124028-3.217275-21.157879 6.216585-27.974122 10.906397-8.124028 22.221094-5.779633 27.1565 2.345418C448.503339 636.953873 444.959629 649.495514 435.853228 656.69345L435.853228 656.69345zM435.853228 656.69345" p-id="3343"></path><path d="M798.625508 442.882829c11.83249 0 21.921265-8.723685 23.610744-20.230764 0.217964-0.817622 0.327458-1.581008 0.327458-2.562359 17.994839-161.571862-132.398426-133.76147-132.398426-133.76147-13.360286 0-24.047696 10.796904-24.047696 24.26566 0 13.249769 10.68741 24.047696 24.047696 24.047696 108.023272-23.829731 84.193541 84.192517 84.193541 84.192517C774.359848 432.19542 785.210987 442.882829 798.625508 442.882829L798.625508 442.882829zM798.625508 442.882829" p-id="3344"></path><path d="M781.066597 160.855548c-51.966559-12.215206-105.405655-1.744737-120.401184 1.14508-1.199315 0.10847-2.290159 1.199315-3.325745 1.417279-0.490164 0.109494-0.87288 0.654916-0.87288 0.654916-14.72333 4.199649-25.520233 17.831111-25.520233 34.026978 0 19.249413 15.595186 35.062564 35.063587 35.062564 0 0 18.920932-2.508123 31.736818-7.579629 12.759605-5.125741 120.401184-3.815909 173.895539 86.047772 29.227672 65.545832 12.868075 109.387339 10.796904 116.475781 0 0-6.925736 17.013489-6.925736 33.80799 0 19.357883 15.595186 31.518854 34.95307 31.518854 16.140609 0 29.718859-2.181689 33.69952-29.556153l0.217964 0C1001.802954 272.532023 874.149599 182.557826 781.066597 160.855548L781.066597 160.855548zM781.066597 160.855548" p-id="3345"></path></svg>